<?xml version="1.0" encoding="UTF-8"?>
<svg xmlns="http://www.w3.org/2000/svg" version="1.1" width="2048px" height="2048px"
     style="shape-rendering:geometricPrecision; text-rendering:geometricPrecision; image-rendering:optimizeQuality; fill-rule:evenodd; clip-rule:evenodd">
<g><path style="opacity:0.991" fill="#fefffe" d="M 944.5,82.5 C 945.827,90.2349 945.827,98.0683 944.5,106C 806.218,136.635 706.718,215.801 646,343.5C 598.369,456.316 598.702,568.983 647,681.5C 705.097,803.253 799.597,880.753 930.5,914C 954.594,919.323 978.927,922.823 1003.5,924.5C 1004.5,945.156 1004.83,965.823 1004.5,986.5C 949.92,998.247 917.42,1031.58 907,1086.5C 904.42,1106.03 906.587,1125.03 913.5,1143.5C 895.896,1154.22 878.063,1164.55 860,1174.5C 781.614,1058.69 672.114,995.518 531.5,985C 399.127,981.961 288.627,1029.13 200,1126.5C 111.197,1234.05 81.1974,1356.38 110,1493.5C 113.028,1506.58 116.861,1519.42 121.5,1532C 115.114,1536.28 108.614,1540.45 102,1544.5C 53.5028,1425.21 44.1694,1302.88 74,1177.5C 121.7,998.494 228.2,867.661 393.5,785C 408.602,778.301 423.768,771.801 439,765.5C 415.909,605.552 449.909,459.219 541,326.5C 641.568,189.929 776.068,108.595 944.5,82.5 Z"/></g>
<g><path style="opacity:0.991" fill="#fefffe" d="M 1101.5,82.5 C 1288.78,111.824 1432.28,206.49 1532,366.5C 1603.42,490.588 1628.75,623.588 1608,765.5C 1777.32,833.15 1893.65,952.483 1957,1123.5C 2001.48,1253.85 2001.48,1384.18 1957,1514.5C 1953.39,1524.66 1949.39,1534.66 1945,1544.5C 1938.39,1540.45 1931.89,1536.28 1925.5,1532C 1964.19,1412.96 1953.03,1298.79 1892,1189.5C 1828.89,1085.48 1737.73,1019.98 1618.5,993C 1484.87,969.07 1366.2,1000.4 1262.5,1087C 1233.63,1113.19 1208.46,1142.35 1187,1174.5C 1168.94,1164.55 1151.1,1154.22 1133.5,1143.5C 1149.58,1093.65 1138.91,1050.49 1101.5,1014C 1084.4,999.451 1064.73,990.284 1042.5,986.5C 1042.17,965.823 1042.5,945.156 1043.5,924.5C 1178.37,914.004 1285.21,854.337 1364,745.5C 1435.02,637.394 1453.68,520.727 1420,395.5C 1381.89,275.059 1305.72,187.892 1191.5,134C 1162.88,121.426 1133.21,112.093 1102.5,106C 1101.52,98.253 1101.18,90.4197 1101.5,82.5 Z"/></g>
<g><path style="opacity:0.99" fill="#fefffe" d="M 992.5,570.5 C 1127.21,564.411 1247.55,602.411 1353.5,684.5C 1354.61,685.723 1354.78,687.056 1354,688.5C 1331.99,729.019 1303.49,764.352 1268.5,794.5C 1164.95,715.623 1049.62,691.456 922.5,722C 869.331,736.417 821.331,760.584 778.5,794.5C 743.513,764.352 715.013,729.019 693,688.5C 692.219,687.056 692.386,685.723 693.5,684.5C 781.366,616.201 881.032,578.201 992.5,570.5 Z"/></g>
<g><path style="opacity:0.99" fill="#fefffe" d="M 507.5,1022.5 C 550.701,1022.43 592.701,1029.43 633.5,1043.5C 618.652,1165.5 651.152,1272.83 731,1365.5C 772.58,1410.96 821.913,1445.29 879,1468.5C 872.335,1506.85 859.669,1543.18 841,1577.5C 837.154,1584.54 832.82,1591.2 828,1597.5C 673.676,1533.18 569.676,1421.84 516,1263.5C 491.632,1185.28 485.299,1105.62 497,1024.5C 500.603,1023.86 504.103,1023.2 507.5,1022.5 Z"/></g>
<g><path style="opacity:0.99" fill="#fefffe" d="M 1531.5,1022.5 C 1537.76,1022.68 1543.93,1023.34 1550,1024.5C 1571.09,1192.26 1525.75,1338.92 1414,1464.5C 1358.9,1523.23 1293.9,1567.56 1219,1597.5C 1198.01,1565.84 1182.68,1531.5 1173,1494.5C 1170.68,1485.9 1169.01,1477.23 1168,1468.5C 1275.42,1423.08 1350.42,1346.08 1393,1237.5C 1415.33,1174.39 1422.16,1109.72 1413.5,1043.5C 1451.89,1030.44 1491.22,1023.44 1531.5,1022.5 Z"/></g>
<g><path style="opacity:0.991" fill="#fefffe" d="M 930.5,1177.5 C 931.552,1177.35 932.552,1177.52 933.5,1178C 971.218,1218.35 1016.22,1229.35 1068.5,1211C 1076.15,1207.51 1083.49,1203.51 1090.5,1199C 1098.97,1192.19 1107.14,1185.03 1115,1177.5C 1132.9,1187.53 1150.73,1197.7 1168.5,1208C 1117.33,1309.87 1108.5,1415.37 1142,1524.5C 1185.33,1649.49 1268.49,1736.33 1391.5,1785C 1521.08,1829.54 1644.08,1815.88 1760.5,1744C 1792.65,1722.7 1821.65,1697.53 1847.5,1668.5C 1854.33,1672.08 1861,1675.91 1867.5,1680C 1763.17,1811.2 1627.17,1886.86 1459.5,1907C 1296.34,1921.43 1151.01,1877.93 1023.5,1776.5C 878.917,1890.31 715.584,1931.15 533.5,1899C 388.549,1868.57 270.549,1795.57 179.5,1680C 186.206,1675.48 193.206,1671.82 200.5,1669C 277.027,1754.09 372.694,1801.09 487.5,1810C 617.077,1814.6 726.577,1770.43 816,1677.5C 906.837,1573.6 940.504,1453.26 917,1316.5C 909.125,1278.54 896.291,1242.37 878.5,1208C 896.061,1198.06 913.394,1187.89 930.5,1177.5 Z"/></g>
</svg>
