<?xml version="1.0" encoding="UTF-8"?>
<svg xmlns="http://www.w3.org/2000/svg" version="1.1" width="1024px" height="1024px" style="shape-rendering:geometricPrecision; text-rendering:geometricPrecision; image-rendering:optimizeQuality; fill-rule:evenodd; clip-rule:evenodd" xmlns:xlink="http://www.w3.org/1999/xlink">
<g><path style="opacity:0.976" fill="#fefffe" d="M 405.5,-0.5 C 476.167,-0.5 546.833,-0.5 617.5,-0.5C 660.444,7.93964 687.944,33.273 700,75.5C 702.944,93.0393 704.111,110.706 703.5,128.5C 777.167,128.333 850.834,128.5 924.5,129C 945.529,134.875 954.696,148.709 952,170.5C 948.956,184.1 940.789,192.933 927.5,197C 911.883,198.42 896.216,198.92 880.5,198.5C 866.176,444.506 851.676,690.506 837,936.5C 828.422,983.038 801.255,1012.04 755.5,1023.5C 592.833,1023.5 430.167,1023.5 267.5,1023.5C 223.29,1012.79 196.456,985.122 187,940.5C 171.865,693.869 157.198,447.203 143,200.5C 129.074,198.692 114.907,197.859 100.5,198C 81.5482,194.046 71.5482,182.379 70.5,163C 71.8474,144.994 81.1808,133.661 98.5,129C 172.499,128.5 246.499,128.333 320.5,128.5C 320.112,112.128 320.612,95.7947 322,79.5C 333.105,35.2257 360.938,8.55902 405.5,-0.5 Z M 421.5,68.5 C 481.834,68.3333 542.168,68.5 602.5,69C 618.099,70.2685 627.932,78.4352 632,93.5C 632.5,105.162 632.667,116.829 632.5,128.5C 551.833,128.5 471.167,128.5 390.5,128.5C 390.333,117.162 390.5,105.828 391,94.5C 395.508,79.1561 405.675,70.4894 421.5,68.5 Z M 213.5,198.5 C 412.5,198.333 611.5,198.5 810.5,199C 796.024,438.422 781.858,677.922 768,917.5C 768.327,936.484 759.493,948.65 741.5,954C 588.167,954.667 434.833,954.667 281.5,954C 261.445,947.093 252.612,932.926 255,911.5C 241.03,673.837 227.196,436.171 213.5,198.5 Z"/></g>
<g><path style="opacity:0.972" fill="#fefffe" d="M 325.5,303.5 C 350.802,302.387 364.635,314.387 367,339.5C 376.343,497.491 385.509,655.491 394.5,813.5C 395.655,837.84 384.155,851.174 360,853.5C 339.259,852.092 327.592,841.092 325,820.5C 315.715,660.148 306.215,499.815 296.5,339.5C 297.444,320.244 307.11,308.244 325.5,303.5 Z"/></g>
<g><path style="opacity:0.971" fill="#fefffe" d="M 503.5,303.5 C 525.71,301.001 539.877,310.334 546,331.5C 546.667,496.167 546.667,660.833 546,825.5C 543.24,836.919 536.74,845.419 526.5,851C 506.53,857.568 491.03,852.068 480,834.5C 478.592,830.943 477.592,827.276 477,823.5C 476.333,660.167 476.333,496.833 477,333.5C 479.619,317.881 488.453,307.881 503.5,303.5 Z"/></g>
<g><path style="opacity:0.971" fill="#fefffe" d="M 684.5,303.5 C 709.911,302.247 723.911,314.247 726.5,339.5C 717.074,500.505 707.574,661.505 698,822.5C 694.618,841.548 683.285,851.882 664,853.5C 647.272,853.137 635.939,845.137 630,829.5C 628.963,824.734 628.463,819.901 628.5,815C 637.687,654.147 647.187,493.313 657,332.5C 659.909,316.761 669.075,307.094 684.5,303.5 Z"/></g>
</svg>
