<?xml version="1.0" encoding="UTF-8"?>
<svg xmlns="http://www.w3.org/2000/svg" version="1.1" width="400px" height="400px"
     style="shape-rendering:geometricPrecision; text-rendering:geometricPrecision; image-rendering:optimizeQuality; fill-rule:evenodd; clip-rule:evenodd">
<g><path style="opacity:0.951" fill="#fefffe" d="M 337.5,110.5 C 345.5,110.5 353.5,110.5 361.5,110.5C 361.5,128.5 361.5,146.5 361.5,164.5C 368.167,164.5 374.833,164.5 381.5,164.5C 377.572,175.696 373.072,186.696 368,197.5C 361.996,211.505 355.496,225.171 348.5,238.5C 346.11,234.726 343.943,230.726 342,226.5C 332.925,206.008 324.092,185.341 315.5,164.5C 322.833,164.5 330.167,164.5 337.5,164.5C 337.5,146.5 337.5,128.5 337.5,110.5 Z"/></g>
<g><path style="opacity:0.957" fill="#fefffe" d="M 261.5,113.5 C 272.533,112.537 283.199,114.037 293.5,118C 299.319,120.813 303.319,125.146 305.5,131C 300.573,148.31 291.24,151.31 277.5,140C 270.738,137.258 265.238,138.758 261,144.5C 260.07,147.85 260.903,150.683 263.5,153C 273.66,156.501 283.993,159.501 294.5,162C 306.276,167.539 312.276,176.872 312.5,190C 310.868,211.636 299.201,223.97 277.5,227C 258.624,229.304 243.791,222.804 233,207.5C 230.312,200.349 232.145,194.516 238.5,190C 243.167,186.667 247.833,186.667 252.5,190C 256.88,194.048 261.546,197.715 266.5,201C 275.912,203.799 281.912,200.632 284.5,191.5C 284.24,189.813 283.573,188.313 282.5,187C 274.961,183.111 266.961,180.445 258.5,179C 235.903,170.97 228.403,155.47 236,132.5C 241.581,122.065 250.081,115.732 261.5,113.5 Z"/></g>
<g><path style="opacity:0.973" fill="#fefffe" d="M 49.5,115.5 C 74.1689,115.333 98.8356,115.5 123.5,116C 126.333,116.833 128.167,118.667 129,121.5C 129.667,126.5 129.667,131.5 129,136.5C 128.215,138.286 127.049,139.786 125.5,141C 107.235,142.461 88.902,142.961 70.5,142.5C 70.5,147.167 70.5,151.833 70.5,156.5C 83.2278,156.08 95.8944,156.58 108.5,158C 112.198,161.234 113.864,165.4 113.5,170.5C 114.184,176.666 111.851,181.166 106.5,184C 94.5046,184.5 82.5046,184.667 70.5,184.5C 70.9394,196.909 70.4394,209.242 69,221.5C 65.7776,224.931 61.7776,226.265 57,225.5C 51.495,226.541 47.1617,224.874 44,220.5C 43.3333,187.5 43.3333,154.5 44,121.5C 45.0209,118.65 46.8542,116.65 49.5,115.5 Z"/></g>
<g><path style="opacity:0.964" fill="#fefffe" d="M 144.5,115.5 C 160.17,115.333 175.837,115.5 191.5,116C 217.626,123.393 228.126,140.559 223,167.5C 217.372,182.793 206.539,191.96 190.5,195C 182.507,195.5 174.507,195.666 166.5,195.5C 166.666,202.175 166.5,208.842 166,215.5C 165.991,220.267 163.824,223.434 159.5,225C 153.747,225.851 148.08,225.517 142.5,224C 140.513,222.681 139.346,220.848 139,218.5C 138.333,186.5 138.333,154.5 139,122.5C 139.938,119.402 141.772,117.069 144.5,115.5 Z M 166.5,142.5 C 173.508,142.334 180.508,142.5 187.5,143C 196.305,146.413 199.138,152.579 196,161.5C 194.062,164.106 191.562,165.939 188.5,167C 181.239,168.348 173.906,168.848 166.5,168.5C 166.5,159.833 166.5,151.167 166.5,142.5 Z"/></g>
</svg>
