<?xml version="1.0" encoding="UTF-8"?>
<svg xmlns="http://www.w3.org/2000/svg" version="1.1" width="570px" height="570px"
     style="shape-rendering:geometricPrecision; text-rendering:geometricPrecision; image-rendering:optimizeQuality; fill-rule:evenodd; clip-rule:evenodd">
<g><path style="opacity:0.125" fill="#fdffec" d="M 273.5,97.5 C 272.833,96.1667 272.833,96.1667 273.5,97.5 Z"/></g>
<g><path style="opacity:0.063" fill="#f9faed" d="M 256.5,103.5 C 257.833,104.167 257.833,104.167 256.5,103.5 Z"/></g>
<g><path style="opacity:1" fill="#fefbc9" d="M 273.5,97.5 C 291.14,94.7619 305.973,99.7619 318,112.5C 332.976,136.796 347.143,161.463 360.5,186.5C 359.206,185.71 358.039,184.71 357,183.5C 354.452,179.737 352.452,175.737 351,171.5C 349.303,168.98 347.47,166.647 345.5,164.5C 344.617,161.296 342.95,158.629 340.5,156.5C 339.217,154.394 338.384,152.06 338,149.5C 331.645,138.392 325.145,127.392 318.5,116.5C 315.393,112.785 311.727,109.785 307.5,107.5C 305.747,105.777 303.747,104.277 301.5,103C 288.301,97.7686 275.634,98.6019 263.5,105.5C 260.585,106.744 257.918,108.411 255.5,110.5C 255.369,109.761 255.536,109.094 256,108.5C 258.593,106.451 261.093,104.285 263.5,102C 267.118,100.788 270.452,99.2879 273.5,97.5 Z"/></g>
<g><path style="opacity:1" fill="#f2d13a" d="M 307.5,107.5 C 300.394,104.72 293.061,102.72 285.5,101.5C 278.129,102.834 270.795,104.167 263.5,105.5C 275.634,98.6019 288.301,97.7686 301.5,103C 303.747,104.277 305.747,105.777 307.5,107.5 Z"/></g>
<g><path style="opacity:0.063" fill="#fef6ed" d="M 239.5,119.5 C 240.833,120.167 240.833,120.167 239.5,119.5 Z"/></g>
<g><path style="opacity:0.125" fill="#faffec" d="M 230.5,141.5 C 231.833,142.167 231.833,142.167 230.5,141.5 Z"/></g>
<g><path style="opacity:1" fill="#0b0601" d="M 304.5,127.5 C 308.344,135.199 312.678,142.532 317.5,149.5C 320.404,155.738 323.738,161.738 327.5,167.5C 334.848,180.202 342.182,192.869 349.5,205.5C 360.344,225.198 371.677,244.531 383.5,263.5C 389.314,275.129 395.648,286.462 402.5,297.5C 406.803,305.782 411.47,313.782 416.5,321.5C 430.861,346.85 445.195,372.184 459.5,397.5C 455.299,396.787 452.299,398.62 450.5,403C 451.167,404 451.833,405 452.5,406C 452.272,406.399 451.938,406.565 451.5,406.5C 450.079,403.991 448.412,401.657 446.5,399.5C 409.669,334.499 372.335,269.832 334.5,205.5C 326.892,191.238 318.892,177.238 310.5,163.5C 305.09,154.35 299.923,145.017 295,135.5C 290.469,129.503 284.969,128.17 278.5,131.5C 276.164,133.004 274.331,135.004 273,137.5C 255.582,167.332 238.416,197.332 221.5,227.5C 218.441,231.904 215.775,236.571 213.5,241.5C 207.995,249.84 202.995,258.507 198.5,267.5C 194.251,274.329 190.251,281.329 186.5,288.5C 184.137,291.549 182.137,294.882 180.5,298.5C 174.331,308.167 168.664,318.167 163.5,328.5C 149.931,351.296 136.598,374.296 123.5,397.5C 119.596,403.634 115.929,409.968 112.5,416.5C 105.844,423.455 105.844,430.455 112.5,437.5C 110.881,439.238 108.881,439.738 106.5,439C 107.167,438.667 107.833,438.333 108.5,438C 107.944,435.763 106.944,433.763 105.5,432C 106.022,431.439 106.355,430.772 106.5,430C 104.833,426.666 103.666,423.166 103,419.5C 102.415,421.129 101.581,422.629 100.5,424C 100.645,424.772 100.978,425.439 101.5,426C 100.73,428.607 100.063,431.273 99.5,434C 99.9054,434.945 100.572,435.612 101.5,436C 98.5894,436.698 97.9227,438.198 99.5,440.5C 97.6885,438.615 96.5218,436.281 96,433.5C 95.3333,429.167 95.3333,424.833 96,420.5C 111.328,393.021 126.828,365.688 142.5,338.5C 150.737,325.033 158.737,311.366 166.5,297.5C 178.018,278.464 189.018,259.131 199.5,239.5C 213.071,216.699 226.404,193.699 239.5,170.5C 248.152,155.869 256.819,141.202 265.5,126.5C 267.194,124.139 269.194,122.139 271.5,120.5C 284.399,114.687 295.399,117.02 304.5,127.5 Z"/></g>
<g><path style="opacity:1" fill="#f5cf2d" d="M 307.5,107.5 C 311.727,109.785 315.393,112.785 318.5,116.5C 325.145,127.392 331.645,138.392 338,149.5C 338.384,152.06 339.217,154.394 340.5,156.5C 339.85,156.196 339.183,155.863 338.5,155.5C 337.709,152.683 336.376,150.183 334.5,148C 332.152,147.654 330.319,146.487 329,144.5C 327.951,145.517 326.784,145.684 325.5,145C 328.118,143.026 327.952,141.193 325,139.5C 324.747,136.8 324.747,134.133 325,131.5C 322.594,127.463 320.094,123.463 317.5,119.5C 315.166,120.841 313.499,120.174 312.5,117.5C 312.709,116.914 313.043,116.414 313.5,116C 311.445,113.945 309.112,112.279 306.5,111C 307.337,109.989 307.67,108.822 307.5,107.5 Z"/></g>
<g><path style="opacity:0.063" fill="#fafeed" d="M 226.5,145.5 C 226.897,144.475 227.563,144.308 228.5,145C 227.906,145.464 227.239,145.631 226.5,145.5 Z"/></g>
<g><path style="opacity:0.125" fill="#feffec" d="M 344.5,149.5 C 345.077,148.227 345.743,148.227 346.5,149.5C 346.03,150.463 345.363,150.463 344.5,149.5 Z"/></g>
<g><path style="opacity:1" fill="#fefcd1" d="M 255.5,110.5 C 247.785,120.233 241.285,130.9 236,142.5C 232.578,145.344 230.745,149.011 230.5,153.5C 229.206,154.29 228.039,155.29 227,156.5C 220.631,168.591 213.798,180.257 206.5,191.5C 207.609,188.267 208.442,184.934 209,181.5C 209.667,182.833 210.333,182.833 211,181.5C 223.872,159.078 236.705,136.744 249.5,114.5C 251.264,112.722 253.264,111.389 255.5,110.5 Z"/></g>
<g><path style="opacity:0.188" fill="#f8ffeb" d="M 200.5,191.5 C 201.525,191.897 201.692,192.563 201,193.5C 200.536,192.906 200.369,192.239 200.5,191.5 Z"/></g>
<g><path style="opacity:1" fill="#f3d457" d="M 345.5,164.5 C 347.47,166.647 349.303,168.98 351,171.5C 352.452,175.737 354.452,179.737 357,183.5C 358.039,184.71 359.206,185.71 360.5,186.5C 361.298,190.089 362.631,193.422 364.5,196.5C 360.862,194.353 358.528,191.186 357.5,187C 352.017,180.196 348.017,172.696 345.5,164.5 Z"/></g>
<g><path style="opacity:1" fill="#f4cd20" d="M 230.5,153.5 C 229.626,157.179 228.126,160.512 226,163.5C 221.818,167.206 220.151,171.873 221,177.5C 221.667,178.833 222.333,178.833 223,177.5C 224.669,175.831 225.502,173.831 225.5,171.5C 229.505,171.81 230.505,173.81 228.5,177.5C 229.117,179.636 230.451,180.47 232.5,180C 231.167,178.16 231.334,177.66 233,178.5C 233.167,177.667 233.333,176.833 233.5,176C 232.383,173.269 231.717,170.435 231.5,167.5C 234.167,166.833 236.833,166.167 239.5,165.5C 239.5,167.167 239.5,168.833 239.5,170.5C 226.404,193.699 213.071,216.699 199.5,239.5C 199.5,237.5 199.5,235.5 199.5,233.5C 201.124,233.64 202.29,232.973 203,231.5C 203.743,229.559 203.576,227.726 202.5,226C 204.025,224.991 205.692,224.491 207.5,224.5C 206.903,220.01 208.569,217.01 212.5,215.5C 212.186,212.378 211.186,209.545 209.5,207C 210.698,204.134 210.698,201.301 209.5,198.5C 208.178,198.67 207.011,198.337 206,197.5C 204.908,200.044 204.241,202.711 204,205.5C 202.89,207.037 201.39,207.703 199.5,207.5C 200.138,210.856 198.804,212.856 195.5,213.5C 198.639,205.888 202.306,198.554 206.5,191.5C 213.798,180.257 220.631,168.591 227,156.5C 228.039,155.29 229.206,154.29 230.5,153.5 Z"/></g>
<g><path style="opacity:1" fill="#040201" d="M 299.5,200.5 C 305.591,205.932 308.258,212.765 307.5,221C 306.316,241.184 304.983,261.35 303.5,281.5C 303.5,284.167 303.5,286.833 303.5,289.5C 301.677,307.981 300.344,326.648 299.5,345.5C 301.502,366.005 292.835,372.838 273.5,366C 272.601,364.348 271.601,362.848 270.5,361.5C 269.578,350.034 268.578,338.701 267.5,327.5C 267.225,310.637 266.225,293.971 264.5,277.5C 264.355,263.805 263.688,250.139 262.5,236.5C 262.378,230.325 262.045,224.158 261.5,218C 261.308,214.271 261.974,210.771 263.5,207.5C 270.332,197.592 279.666,194.092 291.5,197C 294.267,198.083 296.933,199.25 299.5,200.5 Z"/></g>
<g><path style="opacity:1" fill="#e1bf2f" d="M 327.5,167.5 C 330.416,170.191 333.083,173.191 335.5,176.5C 338.5,182.5 341.5,188.5 344.5,194.5C 348.434,197.082 350.101,200.748 349.5,205.5C 342.182,192.869 334.848,180.202 327.5,167.5 Z"/></g>
<g><path style="opacity:1" fill="#fffbce" d="M 206.5,191.5 C 202.306,198.554 198.639,205.888 195.5,213.5C 192.419,215.674 190.419,218.674 189.5,222.5C 186.331,226.833 183.664,231.5 181.5,236.5C 177.129,243.27 173.129,250.27 169.5,257.5C 166.974,262.193 164.141,266.86 161,271.5C 159.991,273.025 159.491,274.692 159.5,276.5C 157.113,278.913 154.946,281.58 153,284.5C 150.001,290.314 146.834,295.981 143.5,301.5C 139.167,309.5 134.833,317.5 130.5,325.5C 124.684,333.115 119.85,341.449 116,350.5C 115.329,351.252 114.496,351.586 113.5,351.5C 116.898,343.702 121.064,336.368 126,329.5C 127.893,326.382 129.226,323.049 130,319.5C 133.639,315.89 135.972,311.556 137,306.5C 137.333,306.833 137.667,307.167 138,307.5C 138.687,305.445 139.854,303.779 141.5,302.5C 162.2,266.941 182.533,231.107 202.5,195C 203.41,193.251 204.743,192.084 206.5,191.5 Z"/></g>
<g><path style="opacity:1" fill="#f8ce0a" d="M 278.5,131.5 C 283.194,130.896 287.528,131.729 291.5,134C 295.869,140.214 298.869,146.714 300.5,153.5C 301.086,153.291 301.586,152.957 302,152.5C 302.14,155.043 302.806,157.377 304,159.5C 304.333,158.833 304.667,158.167 305,157.5C 306.634,159.837 308.467,161.837 310.5,163.5C 318.892,177.238 326.892,191.238 334.5,205.5C 332.393,202.963 330.059,200.63 327.5,198.5C 326.614,197.675 326.281,196.675 326.5,195.5C 325.5,195.5 324.5,195.5 323.5,195.5C 323.657,196.873 323.49,198.207 323,199.5C 320.99,196.169 321.157,193.002 323.5,190C 323.167,189.5 322.833,189 322.5,188.5C 319.393,190.378 316.727,192.711 314.5,195.5C 312.5,194.5 310.5,193.5 308.5,192.5C 306.929,193.309 305.262,193.643 303.5,193.5C 303.5,194.5 303.5,195.5 303.5,196.5C 301.436,196.687 299.436,197.187 297.5,198C 298.381,198.708 299.047,199.542 299.5,200.5C 296.933,199.25 294.267,198.083 291.5,197C 279.666,194.092 270.332,197.592 263.5,207.5C 262.25,207.577 261.417,208.244 261,209.5C 260.238,218.713 260.738,227.713 262.5,236.5C 263.688,250.139 264.355,263.805 264.5,277.5C 264.333,288.838 264.5,300.172 265,311.5C 265.52,317.025 266.353,322.358 267.5,327.5C 266.222,336.845 266.389,346.178 268,355.5C 268.037,357.974 268.87,359.974 270.5,361.5C 271.601,362.848 272.601,364.348 273.5,366C 292.835,372.838 301.502,366.005 299.5,345.5C 299.833,345.5 300.167,345.5 300.5,345.5C 300.72,351.369 300.386,357.203 299.5,363C 302.666,368.84 301,372.673 294.5,374.5C 293.96,375.748 293.293,376.915 292.5,378C 282.052,379.345 282.219,380.845 293,382.5C 293.772,382.355 294.439,382.022 295,381.5C 295.608,383.154 296.108,384.821 296.5,386.5C 282.993,379.486 272.826,382.819 266,396.5C 264.706,410.244 270.873,418.244 284.5,420.5C 288.841,420.084 292.841,418.751 296.5,416.5C 293.553,420.282 289.553,422.449 284.5,423C 285.833,423.667 285.833,424.333 284.5,425C 281.435,427.581 277.935,429.414 274,430.5C 273.833,430.833 273.667,431.167 273.5,431.5C 276.428,432.484 279.428,432.817 282.5,432.5C 282.5,431.5 282.5,430.5 282.5,429.5C 284.792,429.756 286.959,429.423 289,428.5C 290.706,429.308 291.539,430.641 291.5,432.5C 294.508,432.299 297.508,431.966 300.5,431.5C 349.155,432.314 397.821,432.814 446.5,433C 448.373,433.953 448.706,435.12 447.5,436.5C 336.152,436.821 224.818,436.488 113.5,435.5C 114.895,431.909 115.895,431.575 116.5,434.5C 117.308,434.192 117.975,433.692 118.5,433C 116.218,431.703 113.885,431.203 111.5,431.5C 111.167,430.167 110.833,428.833 110.5,427.5C 111.171,423.824 111.838,420.157 112.5,416.5C 113.496,416.586 114.329,416.252 115,415.5C 116.815,411.204 119.148,407.204 122,403.5C 122.813,401.564 123.313,399.564 123.5,397.5C 136.598,374.296 149.931,351.296 163.5,328.5C 164.496,328.586 165.329,328.252 166,327.5C 168.493,320.651 172.327,314.817 177.5,310C 176.932,307.245 177.765,304.745 180,302.5C 180.49,301.207 180.657,299.873 180.5,298.5C 182.137,294.882 184.137,291.549 186.5,288.5C 192.168,282.488 196.168,275.488 198.5,267.5C 202.995,258.507 207.995,249.84 213.5,241.5C 215.984,239.206 218.15,236.54 220,233.5C 221.128,231.655 221.628,229.655 221.5,227.5C 238.416,197.332 255.582,167.332 273,137.5C 274.331,135.004 276.164,133.004 278.5,131.5 Z"/></g>
<g><path style="opacity:1" fill="#fffbcd" d="M 360.5,186.5 C 362.451,187.716 363.951,189.382 365,191.5C 369.075,199.902 373.242,208.235 377.5,216.5C 376.5,215.833 375.5,215.167 374.5,214.5C 372.103,207.971 368.77,201.971 364.5,196.5C 362.631,193.422 361.298,190.089 360.5,186.5 Z"/></g>
<g><path style="opacity:1" fill="#f8ce08" d="M 334.5,205.5 C 372.335,269.832 409.669,334.499 446.5,399.5C 446.34,401.199 446.506,402.866 447,404.5C 447.333,404.167 447.667,403.833 448,403.5C 449.286,406.405 450.286,409.405 451,412.5C 453.44,415.377 455.607,418.377 457.5,421.5C 458.344,425.099 458.677,428.766 458.5,432.5C 457.448,432.351 456.448,432.517 455.5,433C 456.833,434 456.833,435 455.5,436C 452.854,436.497 450.187,436.664 447.5,436.5C 448.706,435.12 448.373,433.953 446.5,433C 397.821,432.814 349.155,432.314 300.5,431.5C 297.508,431.966 294.508,432.299 291.5,432.5C 291.539,430.641 290.706,429.308 289,428.5C 286.959,429.423 284.792,429.756 282.5,429.5C 282.5,430.5 282.5,431.5 282.5,432.5C 279.428,432.817 276.428,432.484 273.5,431.5C 273.667,431.167 273.833,430.833 274,430.5C 277.935,429.414 281.435,427.581 284.5,425C 285.833,424.333 285.833,423.667 284.5,423C 289.553,422.449 293.553,420.282 296.5,416.5C 300.379,414.794 302.879,411.794 304,407.5C 304.667,402.5 304.667,397.5 304,392.5C 302.099,389.634 299.599,387.634 296.5,386.5C 296.108,384.821 295.608,383.154 295,381.5C 294.439,382.022 293.772,382.355 293,382.5C 282.219,380.845 282.052,379.345 292.5,378C 293.293,376.915 293.96,375.748 294.5,374.5C 301,372.673 302.666,368.84 299.5,363C 300.386,357.203 300.72,351.369 300.5,345.5C 302.918,327.063 303.918,308.397 303.5,289.5C 303.5,286.833 303.5,284.167 303.5,281.5C 305.255,279.239 306.422,276.572 307,273.5C 307.048,256.174 307.882,239.007 309.5,222C 309.167,218.167 308.833,214.333 308.5,210.5C 306.649,207.674 305.316,204.674 304.5,201.5C 302.784,201.371 301.117,201.038 299.5,200.5C 299.047,199.542 298.381,198.708 297.5,198C 299.436,197.187 301.436,196.687 303.5,196.5C 303.5,195.5 303.5,194.5 303.5,193.5C 305.262,193.643 306.929,193.309 308.5,192.5C 310.5,193.5 312.5,194.5 314.5,195.5C 316.727,192.711 319.393,190.378 322.5,188.5C 322.833,189 323.167,189.5 323.5,190C 321.157,193.002 320.99,196.169 323,199.5C 323.49,198.207 323.657,196.873 323.5,195.5C 324.5,195.5 325.5,195.5 326.5,195.5C 326.281,196.675 326.614,197.675 327.5,198.5C 330.059,200.63 332.393,202.963 334.5,205.5 Z"/></g>
<g><path style="opacity:0.157" fill="#fcffec" d="M 183.5,216.5 C 184.573,217.251 184.74,218.251 184,219.5C 183.517,218.552 183.351,217.552 183.5,216.5 Z"/></g>
<g><path style="opacity:1" fill="#fefdda" d="M 377.5,216.5 C 380.518,217.855 381.851,220.188 381.5,223.5C 379.55,221.57 378.217,219.237 377.5,216.5 Z"/></g>
<g><path style="opacity:1" fill="#f4e06d" d="M 374.5,214.5 C 375.5,215.167 376.5,215.833 377.5,216.5C 378.217,219.237 379.55,221.57 381.5,223.5C 381.704,225.685 382.37,227.685 383.5,229.5C 381.274,226.091 378.774,222.758 376,219.5C 375.392,217.846 374.892,216.179 374.5,214.5 Z"/></g>
<g><path style="opacity:1" fill="#fffcce" d="M 381.5,223.5 C 383.346,225.03 384.346,227.03 384.5,229.5C 384.167,229.5 383.833,229.5 383.5,229.5C 382.37,227.685 381.704,225.685 381.5,223.5 Z"/></g>
<g><path style="opacity:1" fill="#f2d558" d="M 189.5,222.5 C 188.886,228.423 186.219,233.09 181.5,236.5C 183.664,231.5 186.331,226.833 189.5,222.5 Z"/></g>
<g><path style="opacity:1" fill="#fefbc9" d="M 384.5,229.5 C 386.534,230.548 387.867,232.214 388.5,234.5C 389.325,235.386 390.325,235.719 391.5,235.5C 392.735,240.887 394.735,245.887 397.5,250.5C 395.629,250.141 394.129,249.141 393,247.5C 390.356,241.373 387.523,235.373 384.5,229.5 Z"/></g>
<g><path style="opacity:1" fill="#efd545" d="M 181.5,236.5 C 181.111,239.946 180.278,243.279 179,246.5C 176.053,250.286 172.887,253.952 169.5,257.5C 173.129,250.27 177.129,243.27 181.5,236.5 Z"/></g>
<g><path style="opacity:0.125" fill="#feffec" d="M 165.5,249.5 C 168.001,249.511 168.168,250.178 166,251.5C 165.536,250.906 165.369,250.239 165.5,249.5 Z"/></g>
<g><path style="opacity:1" fill="#fef7c2" d="M 397.5,250.5 C 399.293,252.426 400.293,254.759 400.5,257.5C 398.273,255.771 397.273,253.438 397.5,250.5 Z"/></g>
<g><path style="opacity:0.376" fill="#fefcd7" d="M 415.5,281.5 C 412.833,278.167 410.167,274.833 407.5,271.5C 405.167,266.833 402.833,262.167 400.5,257.5C 401.458,257.047 402.292,256.381 403,255.5C 403.333,257.167 403.667,258.833 404,260.5C 407.689,267.661 411.522,274.661 415.5,281.5 Z"/></g>
<g><path style="opacity:0.063" fill="#f5fced" d="M 412.5,271.5 C 413.833,272.167 413.833,272.167 412.5,271.5 Z"/></g>
<g><path style="opacity:0.125" fill="#feffec" d="M 149.5,276.5 C 152.001,276.511 152.168,277.178 150,278.5C 149.536,277.906 149.369,277.239 149.5,276.5 Z"/></g>
<g><path style="opacity:1" fill="#f4da5f" d="M 407.5,271.5 C 410.167,274.833 412.833,278.167 415.5,281.5C 415.34,283.199 415.506,284.866 416,286.5C 418.358,289.222 420.191,292.222 421.5,295.5C 420.357,295.092 419.357,294.425 418.5,293.5C 414.266,286.365 410.599,279.032 407.5,271.5 Z"/></g>
<g><path style="opacity:1" fill="#fefcd6" d="M 415.5,281.5 C 417.656,284.156 419.989,286.656 422.5,289C 421.179,290.545 421.512,291.711 423.5,292.5C 424.421,294.777 425.087,297.11 425.5,299.5C 424.167,298.167 422.833,296.833 421.5,295.5C 420.191,292.222 418.358,289.222 416,286.5C 415.506,284.866 415.34,283.199 415.5,281.5 Z"/></g>
<g><path style="opacity:1" fill="#f4d243" d="M 159.5,276.5 C 155.505,284.809 151.505,293.142 147.5,301.5C 146.167,301.5 144.833,301.5 143.5,301.5C 146.834,295.981 150.001,290.314 153,284.5C 154.946,281.58 157.113,278.913 159.5,276.5 Z"/></g>
<g><path style="opacity:1" fill="#fffcc8" d="M 425.5,299.5 C 429.619,304.176 432.619,309.51 434.5,315.5C 431.865,312.921 429.699,309.921 428,306.5C 426.864,304.257 426.03,301.924 425.5,299.5 Z"/></g>
<g><path style="opacity:0.125" fill="#fbffec" d="M 443.5,304.5 C 444.833,305.167 444.833,305.167 443.5,304.5 Z"/></g>
<g><path style="opacity:1" fill="#f2d240" d="M 421.5,295.5 C 422.833,296.833 424.167,298.167 425.5,299.5C 426.03,301.924 426.864,304.257 428,306.5C 429.699,309.921 431.865,312.921 434.5,315.5C 437.464,321.34 440.297,327.34 443,333.5C 446.592,335.873 448.425,339.206 448.5,343.5C 446.731,341.722 444.731,340.055 442.5,338.5C 441.731,335.49 440.897,332.49 440,329.5C 436.726,323.791 433.559,318.124 430.5,312.5C 428.712,312.785 427.045,312.452 425.5,311.5C 425.931,310.707 426.265,309.873 426.5,309C 424.132,304.747 422.465,300.247 421.5,295.5 Z"/></g>
<g><path style="opacity:0.063" fill="#f7ffed" d="M 453.5,339.5 C 454.525,339.897 454.692,340.563 454,341.5C 453.536,340.906 453.369,340.239 453.5,339.5 Z"/></g>
<g><path style="opacity:1" fill="#fffbcb" d="M 434.5,315.5 C 438.138,320.088 441.305,325.088 444,330.5C 444.667,331.833 445.333,331.833 446,330.5C 446.492,331.549 446.326,332.549 445.5,333.5C 449.555,339.256 453.388,345.256 457,351.5C 459.776,356.754 462.276,362.087 464.5,367.5C 459.167,359.5 453.833,351.5 448.5,343.5C 448.425,339.206 446.592,335.873 443,333.5C 440.297,327.34 437.464,321.34 434.5,315.5 Z"/></g>
<g><path style="opacity:0.125" fill="#feffec" d="M 103.5,356.5 C 104.833,357.167 104.833,357.167 103.5,356.5 Z"/></g>
<g><path style="opacity:1" fill="#fefcc9" d="M 464.5,367.5 C 468.99,372.465 472.49,378.132 475,384.5C 475.671,385.252 476.504,385.586 477.5,385.5C 477.694,388.33 478.361,390.996 479.5,393.5C 476.777,390.414 474.277,387.08 472,383.5C 469.671,378.03 467.171,372.696 464.5,367.5 Z"/></g>
<g><path style="opacity:1" fill="#f6ce12" d="M 307.5,107.5 C 307.67,108.822 307.337,109.989 306.5,111C 309.112,112.279 311.445,113.945 313.5,116C 313.043,116.414 312.709,116.914 312.5,117.5C 313.499,120.174 315.166,120.841 317.5,119.5C 320.094,123.463 322.594,127.463 325,131.5C 324.747,134.133 324.747,136.8 325,139.5C 327.952,141.193 328.118,143.026 325.5,145C 326.784,145.684 327.951,145.517 329,144.5C 330.319,146.487 332.152,147.654 334.5,148C 336.376,150.183 337.709,152.683 338.5,155.5C 339.183,155.863 339.85,156.196 340.5,156.5C 342.95,158.629 344.617,161.296 345.5,164.5C 348.017,172.696 352.017,180.196 357.5,187C 358.528,191.186 360.862,194.353 364.5,196.5C 368.77,201.971 372.103,207.971 374.5,214.5C 374.892,216.179 375.392,217.846 376,219.5C 378.774,222.758 381.274,226.091 383.5,229.5C 383.833,229.5 384.167,229.5 384.5,229.5C 387.523,235.373 390.356,241.373 393,247.5C 394.129,249.141 395.629,250.141 397.5,250.5C 397.273,253.438 398.273,255.771 400.5,257.5C 402.833,262.167 405.167,266.833 407.5,271.5C 410.599,279.032 414.266,286.365 418.5,293.5C 419.357,294.425 420.357,295.092 421.5,295.5C 422.465,300.247 424.132,304.747 426.5,309C 426.265,309.873 425.931,310.707 425.5,311.5C 427.045,312.452 428.712,312.785 430.5,312.5C 433.559,318.124 436.726,323.791 440,329.5C 440.897,332.49 441.731,335.49 442.5,338.5C 444.731,340.055 446.731,341.722 448.5,343.5C 453.833,351.5 459.167,359.5 464.5,367.5C 467.171,372.696 469.671,378.03 472,383.5C 474.277,387.08 476.777,390.414 479.5,393.5C 483.59,400.449 487.09,407.783 490,415.5C 493.036,429.866 490.203,442.866 481.5,454.5C 478.19,456.146 475.523,458.48 473.5,461.5C 470.633,464.018 467.3,465.685 463.5,466.5C 347.184,467.657 230.851,467.824 114.5,467C 111.937,465.921 109.271,465.421 106.5,465.5C 105.167,465.5 103.833,465.5 102.5,465.5C 100.412,464.061 98.0786,463.394 95.5,463.5C 88.1441,456.771 82.8107,448.771 79.5,439.5C 78.1223,431.812 78.2889,424.146 80,416.5C 82.3544,412.077 84.8544,407.743 87.5,403.5C 88.322,401.611 89.1553,399.611 90,397.5C 91.8254,396.897 93.6587,396.23 95.5,395.5C 94.1667,393.167 94.1667,390.833 95.5,388.5C 98.2741,384.848 101.441,381.515 105,378.5C 104.695,376.557 104.695,374.557 105,372.5C 106.067,371.809 107.234,371.309 108.5,371C 107.184,369.022 107.684,367.522 110,366.5C 110.166,361.834 112.166,358.167 116,355.5C 117.148,349.858 119.815,345.192 124,341.5C 125.044,342.623 125.71,343.956 126,345.5C 126.96,343.02 127.793,340.52 128.5,338C 126,335.442 126.5,333.275 130,331.5C 130.495,329.527 130.662,327.527 130.5,325.5C 134.833,317.5 139.167,309.5 143.5,301.5C 144.833,301.5 146.167,301.5 147.5,301.5C 151.505,293.142 155.505,284.809 159.5,276.5C 159.491,274.692 159.991,273.025 161,271.5C 164.141,266.86 166.974,262.193 169.5,257.5C 172.887,253.952 176.053,250.286 179,246.5C 180.278,243.279 181.111,239.946 181.5,236.5C 186.219,233.09 188.886,228.423 189.5,222.5C 190.419,218.674 192.419,215.674 195.5,213.5C 198.804,212.856 200.138,210.856 199.5,207.5C 201.39,207.703 202.89,207.037 204,205.5C 204.241,202.711 204.908,200.044 206,197.5C 207.011,198.337 208.178,198.67 209.5,198.5C 210.698,201.301 210.698,204.134 209.5,207C 211.186,209.545 212.186,212.378 212.5,215.5C 208.569,217.01 206.903,220.01 207.5,224.5C 205.692,224.491 204.025,224.991 202.5,226C 203.576,227.726 203.743,229.559 203,231.5C 202.29,232.973 201.124,233.64 199.5,233.5C 199.5,235.5 199.5,237.5 199.5,239.5C 189.018,259.131 178.018,278.464 166.5,297.5C 163.645,297.842 162.145,299.509 162,302.5C 161.086,301.346 160.253,301.513 159.5,303C 160.022,303.561 160.355,304.228 160.5,305C 159.293,306.3 158.626,307.8 158.5,309.5C 157.127,309.343 155.793,309.51 154.5,310C 154.957,310.414 155.291,310.914 155.5,311.5C 154.846,313.115 154.346,314.782 154,316.5C 151.097,321.27 147.931,325.936 144.5,330.5C 143.518,333.096 142.851,335.762 142.5,338.5C 126.828,365.688 111.328,393.021 96,420.5C 95.3333,424.833 95.3333,429.167 96,433.5C 96.5218,436.281 97.6885,438.615 99.5,440.5C 100.075,442.411 101.075,444.078 102.5,445.5C 102.751,447.17 103.418,448.67 104.5,450C 104.167,450.333 103.833,450.667 103.5,451C 107.558,451.34 111.558,452.007 115.5,453C 228.833,453.667 342.167,453.667 455.5,453C 457.584,452.303 459.251,451.136 460.5,449.5C 464.12,447.547 467.12,444.881 469.5,441.5C 471.844,441.494 473.178,440.327 473.5,438C 477.086,428.128 476.086,419.628 470.5,412.5C 470.043,411.702 469.376,411.369 468.5,411.5C 465.866,406.602 462.866,401.936 459.5,397.5C 445.195,372.184 430.861,346.85 416.5,321.5C 416.953,318.348 415.953,315.848 413.5,314C 413.833,313.667 414.167,313.333 414.5,313C 411.497,308.69 409.164,304.19 407.5,299.5C 405.678,299.169 404.011,298.502 402.5,297.5C 395.648,286.462 389.314,275.129 383.5,263.5C 382.58,261.119 382.58,258.786 383.5,256.5C 382.009,255.756 380.509,255.09 379,254.5C 377.542,250.386 375.876,246.386 374,242.5C 373.316,240.521 373.816,238.854 375.5,237.5C 374.689,236.784 374.022,235.95 373.5,235C 373.892,233.989 374.559,233.489 375.5,233.5C 373.892,232.682 372.225,232.015 370.5,231.5C 369.571,230.311 369.238,228.978 369.5,227.5C 366.835,226.087 364.001,224.754 361,223.5C 360.237,220.178 359.071,217.011 357.5,214C 355.093,210.973 352.927,207.806 351,204.5C 350.617,205.056 350.117,205.389 349.5,205.5C 350.101,200.748 348.434,197.082 344.5,194.5C 341.5,188.5 338.5,182.5 335.5,176.5C 333.083,173.191 330.416,170.191 327.5,167.5C 323.738,161.738 320.404,155.738 317.5,149.5C 316.095,143.904 313.928,138.571 311,133.5C 309.028,131.146 306.861,129.146 304.5,127.5C 304.649,126.448 304.483,125.448 304,124.5C 300.858,120.759 298.358,117.093 296.5,113.5C 294.729,114.035 294.396,114.869 295.5,116C 289.167,116.333 282.833,116.667 276.5,117C 274.027,117.22 272.36,118.386 271.5,120.5C 269.194,122.139 267.194,124.139 265.5,126.5C 264.417,126.539 263.417,126.873 262.5,127.5C 261.006,131.669 258.673,135.336 255.5,138.5C 254.548,140.045 254.215,141.712 254.5,143.5C 253.5,143.5 252.5,143.5 251.5,143.5C 251.696,148.45 249.696,152.117 245.5,154.5C 245.264,159.32 243.264,162.986 239.5,165.5C 236.833,166.167 234.167,166.833 231.5,167.5C 231.717,170.435 232.383,173.269 233.5,176C 233.333,176.833 233.167,177.667 233,178.5C 231.334,177.66 231.167,178.16 232.5,180C 230.451,180.47 229.117,179.636 228.5,177.5C 230.505,173.81 229.505,171.81 225.5,171.5C 225.502,173.831 224.669,175.831 223,177.5C 222.333,178.833 221.667,178.833 221,177.5C 220.151,171.873 221.818,167.206 226,163.5C 228.126,160.512 229.626,157.179 230.5,153.5C 230.745,149.011 232.578,145.344 236,142.5C 241.285,130.9 247.785,120.233 255.5,110.5C 257.918,108.411 260.585,106.744 263.5,105.5C 270.795,104.167 278.129,102.834 285.5,101.5C 293.061,102.72 300.394,104.72 307.5,107.5 Z"/></g>
<g><path style="opacity:1" fill="#dbba32" d="M 267.5,327.5 C 268.578,338.701 269.578,350.034 270.5,361.5C 268.87,359.974 268.037,357.974 268,355.5C 266.389,346.178 266.222,336.845 267.5,327.5 Z"/></g>
<g><path style="opacity:1" fill="#bca12a" d="M 303.5,289.5 C 303.918,308.397 302.918,327.063 300.5,345.5C 300.167,345.5 299.833,345.5 299.5,345.5C 300.344,326.648 301.677,307.981 303.5,289.5 Z"/></g>
<g><path style="opacity:1" fill="#daba34" d="M 180.5,298.5 C 180.657,299.873 180.49,301.207 180,302.5C 177.765,304.745 176.932,307.245 177.5,310C 172.327,314.817 168.493,320.651 166,327.5C 165.329,328.252 164.496,328.586 163.5,328.5C 168.664,318.167 174.331,308.167 180.5,298.5 Z"/></g>
<g><path style="opacity:1" fill="#dbbf2d" d="M 166.5,297.5 C 158.737,311.366 150.737,325.033 142.5,338.5C 142.851,335.762 143.518,333.096 144.5,330.5C 147.931,325.936 151.097,321.27 154,316.5C 154.346,314.782 154.846,313.115 155.5,311.5C 155.291,310.914 154.957,310.414 154.5,310C 155.793,309.51 157.127,309.343 158.5,309.5C 158.626,307.8 159.293,306.3 160.5,305C 160.355,304.228 160.022,303.561 159.5,303C 160.253,301.513 161.086,301.346 162,302.5C 162.145,299.509 163.645,297.842 166.5,297.5 Z"/></g>
<g><path style="opacity:1" fill="#dfc12e" d="M 402.5,297.5 C 404.011,298.502 405.678,299.169 407.5,299.5C 409.164,304.19 411.497,308.69 414.5,313C 414.167,313.333 413.833,313.667 413.5,314C 415.953,315.848 416.953,318.348 416.5,321.5C 411.47,313.782 406.803,305.782 402.5,297.5 Z"/></g>
<g><path style="opacity:1" fill="#cfb62d" d="M 264.5,277.5 C 266.225,293.971 267.225,310.637 267.5,327.5C 266.353,322.358 265.52,317.025 265,311.5C 264.5,300.172 264.333,288.838 264.5,277.5 Z"/></g>
<g><path style="opacity:1" fill="#d3b837" d="M 198.5,267.5 C 196.168,275.488 192.168,282.488 186.5,288.5C 190.251,281.329 194.251,274.329 198.5,267.5 Z"/></g>
<g><path style="opacity:1" fill="#dabd27" d="M 299.5,200.5 C 301.117,201.038 302.784,201.371 304.5,201.5C 305.316,204.674 306.649,207.674 308.5,210.5C 308.833,214.333 309.167,218.167 309.5,222C 307.882,239.007 307.048,256.174 307,273.5C 306.422,276.572 305.255,279.239 303.5,281.5C 304.983,261.35 306.316,241.184 307.5,221C 308.258,212.765 305.591,205.932 299.5,200.5 Z"/></g>
<g><path style="opacity:1" fill="#c9b136" d="M 221.5,227.5 C 221.628,229.655 221.128,231.655 220,233.5C 218.15,236.54 215.984,239.206 213.5,241.5C 215.775,236.571 218.441,231.904 221.5,227.5 Z"/></g>
<g><path style="opacity:1" fill="#edc723" d="M 383.5,263.5 C 371.677,244.531 360.344,225.198 349.5,205.5C 350.117,205.389 350.617,205.056 351,204.5C 352.927,207.806 355.093,210.973 357.5,214C 359.071,217.011 360.237,220.178 361,223.5C 364.001,224.754 366.835,226.087 369.5,227.5C 369.238,228.978 369.571,230.311 370.5,231.5C 372.225,232.015 373.892,232.682 375.5,233.5C 374.559,233.489 373.892,233.989 373.5,235C 374.022,235.95 374.689,236.784 375.5,237.5C 373.816,238.854 373.316,240.521 374,242.5C 375.876,246.386 377.542,250.386 379,254.5C 380.509,255.09 382.009,255.756 383.5,256.5C 382.58,258.786 382.58,261.119 383.5,263.5 Z"/></g>
<g><path style="opacity:1" fill="#b49e25" d="M 263.5,207.5 C 261.974,210.771 261.308,214.271 261.5,218C 262.045,224.158 262.378,230.325 262.5,236.5C 260.738,227.713 260.238,218.713 261,209.5C 261.417,208.244 262.25,207.577 263.5,207.5 Z"/></g>
<g><path style="opacity:1" fill="#e2c12a" d="M 310.5,163.5 C 308.467,161.837 306.634,159.837 305,157.5C 304.667,158.167 304.333,158.833 304,159.5C 302.806,157.377 302.14,155.043 302,152.5C 301.586,152.957 301.086,153.291 300.5,153.5C 298.869,146.714 295.869,140.214 291.5,134C 287.528,131.729 283.194,130.896 278.5,131.5C 284.969,128.17 290.469,129.503 295,135.5C 299.923,145.017 305.09,154.35 310.5,163.5 Z"/></g>
<g><path style="opacity:1" fill="#dbbf2d" d="M 265.5,126.5 C 256.819,141.202 248.152,155.869 239.5,170.5C 239.5,168.833 239.5,167.167 239.5,165.5C 243.264,162.986 245.264,159.32 245.5,154.5C 249.696,152.117 251.696,148.45 251.5,143.5C 252.5,143.5 253.5,143.5 254.5,143.5C 254.215,141.712 254.548,140.045 255.5,138.5C 258.673,135.336 261.006,131.669 262.5,127.5C 263.417,126.873 264.417,126.539 265.5,126.5 Z"/></g>
<g><path style="opacity:1" fill="#dbbf2d" d="M 304.5,127.5 C 306.861,129.146 309.028,131.146 311,133.5C 313.928,138.571 316.095,143.904 317.5,149.5C 312.678,142.532 308.344,135.199 304.5,127.5 Z"/></g>
<g><path style="opacity:1" fill="#e4c22b" d="M 304.5,127.5 C 295.399,117.02 284.399,114.687 271.5,120.5C 272.36,118.386 274.027,117.22 276.5,117C 282.833,116.667 289.167,116.333 295.5,116C 294.396,114.869 294.729,114.035 296.5,113.5C 298.358,117.093 300.858,120.759 304,124.5C 304.483,125.448 304.649,126.448 304.5,127.5 Z"/></g>
<g><path style="opacity:1" fill="#fffbd5" d="M 113.5,351.5 C 111.949,356.935 109.115,361.601 105,365.5C 102.78,372.945 99.2798,379.611 94.5,385.5C 96.541,379.746 98.8744,374.08 101.5,368.5C 105.744,363.014 109.744,357.347 113.5,351.5 Z"/></g>
<g><path style="opacity:0.063" fill="#fafced" d="M 475.5,375.5 C 476.833,376.167 476.833,376.167 475.5,375.5 Z"/></g>
<g><path style="opacity:0.533" fill="#fefde6" d="M 477.5,385.5 C 477.639,383.663 478.306,383.33 479.5,384.5C 479.043,385.298 478.376,385.631 477.5,385.5 Z"/></g>
<g><path style="opacity:0.125" fill="#faffec" d="M 480.5,387.5 C 481.833,388.167 481.833,388.167 480.5,387.5 Z"/></g>
<g><path style="opacity:0.314" fill="#fafeeb" d="M 485.5,392.5 C 486.289,392.783 486.956,393.283 487.5,394C 486.184,394.528 485.517,394.028 485.5,392.5 Z"/></g>
<g><path style="opacity:1" fill="#0b0702" d="M 296.5,386.5 C 305.765,396.469 305.765,406.469 296.5,416.5C 292.841,418.751 288.841,420.084 284.5,420.5C 270.873,418.244 264.706,410.244 266,396.5C 272.826,382.819 282.993,379.486 296.5,386.5 Z"/></g>
<g><path style="opacity:1" fill="#fefdd5" d="M 94.5,385.5 C 92.1667,390.167 89.8333,394.833 87.5,399.5C 83.5896,404.388 80.5896,409.722 78.5,415.5C 78.605,411.681 79.4383,408.014 81,404.5C 85.0124,398.821 88.8457,392.988 92.5,387C 91.0338,383.189 91.7004,382.689 94.5,385.5 Z"/></g>
<g><path style="opacity:1" fill="#f3d034" d="M 130.5,325.5 C 130.662,327.527 130.495,329.527 130,331.5C 126.5,333.275 126,335.442 128.5,338C 127.793,340.52 126.96,343.02 126,345.5C 125.71,343.956 125.044,342.623 124,341.5C 119.815,345.192 117.148,349.858 116,355.5C 112.166,358.167 110.166,361.834 110,366.5C 107.684,367.522 107.184,369.022 108.5,371C 107.234,371.309 106.067,371.809 105,372.5C 104.695,374.557 104.695,376.557 105,378.5C 101.441,381.515 98.2741,384.848 95.5,388.5C 94.1667,390.833 94.1667,393.167 95.5,395.5C 93.6587,396.23 91.8254,396.897 90,397.5C 89.1553,399.611 88.322,401.611 87.5,403.5C 87.5,402.167 87.5,400.833 87.5,399.5C 89.8333,394.833 92.1667,390.167 94.5,385.5C 99.2798,379.611 102.78,372.945 105,365.5C 109.115,361.601 111.949,356.935 113.5,351.5C 114.496,351.586 115.329,351.252 116,350.5C 119.85,341.449 124.684,333.115 130.5,325.5 Z"/></g>
<g><path style="opacity:1" fill="#050201" d="M 459.5,397.5 C 462.866,401.936 465.866,406.602 468.5,411.5C 474.766,421.299 475.1,431.299 469.5,441.5C 467.12,444.881 464.12,447.547 460.5,449.5C 459.833,449.5 459.167,449.5 458.5,449.5C 454.617,450.918 451.283,449.918 448.5,446.5C 447.614,447.325 447.281,448.325 447.5,449.5C 337.499,449.667 227.499,449.5 117.5,449C 112.744,448.062 108.077,446.895 103.5,445.5C 103.167,445.5 102.833,445.5 102.5,445.5C 101.075,444.078 100.075,442.411 99.5,440.5C 97.9227,438.198 98.5894,436.698 101.5,436C 100.572,435.612 99.9054,434.945 99.5,434C 100.063,431.273 100.73,428.607 101.5,426C 100.978,425.439 100.645,424.772 100.5,424C 101.581,422.629 102.415,421.129 103,419.5C 103.666,423.166 104.833,426.666 106.5,430C 106.355,430.772 106.022,431.439 105.5,432C 106.944,433.763 107.944,435.763 108.5,438C 107.833,438.333 107.167,438.667 106.5,439C 108.881,439.738 110.881,439.238 112.5,437.5C 113.473,437.987 114.473,438.487 115.5,439C 227.833,439.667 340.167,439.667 452.5,439C 453.737,438.768 454.737,438.268 455.5,437.5C 457.167,436.5 458.5,435.167 459.5,433.5C 461.337,430.481 461.837,427.148 461,423.5C 457.356,418.037 454.19,412.37 451.5,406.5C 451.938,406.565 452.272,406.399 452.5,406C 451.833,405 451.167,404 450.5,403C 452.299,398.62 455.299,396.787 459.5,397.5 Z"/></g>
<g><path style="opacity:0.063" fill="#fbf5ee" d="M 80.5,400.5 C 81.525,400.897 81.6917,401.563 81,402.5C 80.5357,401.906 80.369,401.239 80.5,400.5 Z"/></g>
<g><path style="opacity:1" fill="#d9bc37" d="M 123.5,397.5 C 123.313,399.564 122.813,401.564 122,403.5C 119.148,407.204 116.815,411.204 115,415.5C 114.329,416.252 113.496,416.586 112.5,416.5C 115.929,409.968 119.596,403.634 123.5,397.5 Z"/></g>
<g><path style="opacity:1" fill="#e7ca34" d="M 296.5,386.5 C 299.599,387.634 302.099,389.634 304,392.5C 304.667,397.5 304.667,402.5 304,407.5C 302.879,411.794 300.379,414.794 296.5,416.5C 305.765,406.469 305.765,396.469 296.5,386.5 Z"/></g>
<g><path style="opacity:1" fill="#f1d455" d="M 87.5,399.5 C 87.5,400.833 87.5,402.167 87.5,403.5C 84.8544,407.743 82.3544,412.077 80,416.5C 78.2889,424.146 78.1223,431.812 79.5,439.5C 79.1667,439.5 78.8333,439.5 78.5,439.5C 77.1667,431.5 77.1667,423.5 78.5,415.5C 80.5896,409.722 83.5896,404.388 87.5,399.5 Z"/></g>
<g><path style="opacity:0.157" fill="#fcffec" d="M 494.5,415.5 C 495.573,416.251 495.74,417.251 495,418.5C 493.272,417.648 493.105,416.648 494.5,415.5 Z"/></g>
<g><path style="opacity:0.157" fill="#fdffec" d="M 73.5,415.5 C 74.2891,415.783 74.9558,416.283 75.5,417C 74.184,417.528 73.5173,417.028 73.5,415.5 Z"/></g>
<g><path style="opacity:1" fill="#d5ba30" d="M 446.5,399.5 C 448.412,401.657 450.079,403.991 451.5,406.5C 454.19,412.37 457.356,418.037 461,423.5C 461.837,427.148 461.337,430.481 459.5,433.5C 459.318,431.409 459.652,429.409 460.5,427.5C 460.086,425.081 459.086,423.081 457.5,421.5C 455.607,418.377 453.44,415.377 451,412.5C 450.286,409.405 449.286,406.405 448,403.5C 447.667,403.833 447.333,404.167 447,404.5C 446.506,402.866 446.34,401.199 446.5,399.5 Z"/></g>
<g><path style="opacity:0.659" fill="#fefdd9" d="M 78.5,415.5 C 77.1667,423.5 77.1667,431.5 78.5,439.5C 77.2101,438.942 76.3768,437.942 76,436.5C 75.7638,434.236 75.2638,432.069 74.5,430C 75.985,425.661 76.8183,421.161 77,416.5C 77.3826,415.944 77.8826,415.611 78.5,415.5 Z"/></g>
<g><path style="opacity:1" fill="#f3cd23" d="M 457.5,421.5 C 459.086,423.081 460.086,425.081 460.5,427.5C 459.652,429.409 459.318,431.409 459.5,433.5C 458.5,435.167 457.167,436.5 455.5,437.5C 342.166,437.667 228.833,437.5 115.5,437C 114.584,436.722 113.918,436.222 113.5,435.5C 224.818,436.488 336.152,436.821 447.5,436.5C 450.187,436.664 452.854,436.497 455.5,436C 456.833,435 456.833,434 455.5,433C 456.448,432.517 457.448,432.351 458.5,432.5C 458.677,428.766 458.344,425.099 457.5,421.5 Z"/></g>
<g><path style="opacity:1" fill="#d7bc2d" d="M 112.5,416.5 C 111.838,420.157 111.171,423.824 110.5,427.5C 110.833,428.833 111.167,430.167 111.5,431.5C 113.885,431.203 116.218,431.703 118.5,433C 117.975,433.692 117.308,434.192 116.5,434.5C 115.895,431.575 114.895,431.909 113.5,435.5C 113.918,436.222 114.584,436.722 115.5,437C 228.833,437.5 342.166,437.667 455.5,437.5C 454.737,438.268 453.737,438.768 452.5,439C 340.167,439.667 227.833,439.667 115.5,439C 114.473,438.487 113.473,437.987 112.5,437.5C 105.844,430.455 105.844,423.455 112.5,416.5 Z"/></g>
<g><path style="opacity:1" fill="#dbbd30" d="M 468.5,411.5 C 469.376,411.369 470.043,411.702 470.5,412.5C 476.086,419.628 477.086,428.128 473.5,438C 473.178,440.327 471.844,441.494 469.5,441.5C 475.1,431.299 474.766,421.299 468.5,411.5 Z"/></g>
<g><path style="opacity:1" fill="#100200" d="M 103.5,445.5 C 108.077,446.895 112.744,448.062 117.5,449C 227.499,449.5 337.499,449.667 447.5,449.5C 447.281,448.325 447.614,447.325 448.5,446.5C 451.283,449.918 454.617,450.918 458.5,449.5C 457.737,450.268 456.737,450.768 455.5,451C 341.5,451.667 227.5,451.667 113.5,451C 109.654,449.914 106.32,448.081 103.5,445.5 Z"/></g>
<g><path style="opacity:1" fill="#e0c32b" d="M 102.5,445.5 C 102.833,445.5 103.167,445.5 103.5,445.5C 106.32,448.081 109.654,449.914 113.5,451C 227.5,451.667 341.5,451.667 455.5,451C 456.737,450.768 457.737,450.268 458.5,449.5C 459.167,449.5 459.833,449.5 460.5,449.5C 459.251,451.136 457.584,452.303 455.5,453C 342.167,453.667 228.833,453.667 115.5,453C 111.558,452.007 107.558,451.34 103.5,451C 103.833,450.667 104.167,450.333 104.5,450C 103.418,448.67 102.751,447.17 102.5,445.5 Z"/></g>
<g><path style="opacity:0.063" fill="#edfefc" d="M 484.5,454.5 C 485.833,455.167 485.833,455.167 484.5,454.5 Z"/></g>
<g><path style="opacity:1" fill="#fefbd0" d="M 78.5,439.5 C 78.8333,439.5 79.1667,439.5 79.5,439.5C 82.8107,448.771 88.1441,456.771 95.5,463.5C 93.5642,462.741 91.7309,461.741 90,460.5C 89.228,460.645 88.5613,460.978 88,461.5C 87.0331,460.322 86.5331,458.989 86.5,457.5C 85.3717,456.738 84.2051,456.071 83,455.5C 83.557,453.063 82.7236,450.896 80.5,449C 79.1282,445.974 78.4615,442.807 78.5,439.5 Z"/></g>
<g><path style="opacity:1" fill="#f6d466" d="M 481.5,454.5 C 479.451,457.55 476.784,459.883 473.5,461.5C 475.523,458.48 478.19,456.146 481.5,454.5 Z"/></g>
<g><path style="opacity:1" fill="#face08" d="M 457.5,453.5 C 459.026,454.105 460.026,455.271 460.5,457C 461.793,457.49 463.127,457.657 464.5,457.5C 464.67,458.822 464.337,459.989 463.5,461C 460.629,461.118 457.962,461.784 455.5,463C 344.832,463.833 234.165,463.667 123.5,462.5C 124.615,461.402 124.615,460.235 123.5,459C 124.509,457.832 125.509,456.665 126.5,455.5C 236.999,454.833 347.333,454.167 457.5,453.5 Z"/></g>
<g><path style="opacity:1" fill="#f2d02e" d="M 106.5,465.5 C 109.271,465.421 111.937,465.921 114.5,467C 230.851,467.824 347.184,467.657 463.5,466.5C 461.095,467.768 458.428,468.435 455.5,468.5C 341.166,468.667 226.833,468.5 112.5,468C 110.277,467.434 108.277,466.6 106.5,465.5 Z"/></g>
<g><path style="opacity:1" fill="#f0d85c" d="M 102.5,465.5 C 103.833,465.5 105.167,465.5 106.5,465.5C 108.277,466.6 110.277,467.434 112.5,468C 226.833,468.5 341.166,468.667 455.5,468.5C 342.335,469.5 229.001,469.833 115.5,469.5C 110.835,468.943 106.502,467.61 102.5,465.5 Z"/></g>
<g><path style="opacity:1" fill="#fffdc8" d="M 479.5,393.5 C 488.996,403.678 493.996,415.845 494.5,430C 493.354,439.114 490.02,447.28 484.5,454.5C 481.608,456.232 479.608,458.732 478.5,462C 474.385,463.223 470.718,465.223 467.5,468C 464.692,468.019 462.359,469.019 460.5,471C 456.113,471.706 451.78,471.54 447.5,470.5C 336.665,470.833 225.999,470.499 115.5,469.5C 229.001,469.833 342.335,469.5 455.5,468.5C 458.428,468.435 461.095,467.768 463.5,466.5C 467.3,465.685 470.633,464.018 473.5,461.5C 476.784,459.883 479.451,457.55 481.5,454.5C 490.203,442.866 493.036,429.866 490,415.5C 487.09,407.783 483.59,400.449 479.5,393.5 Z"/></g>
<g><path style="opacity:0.126" fill="#fffdea" d="M 95.5,463.5 C 98.0786,463.394 100.412,464.061 102.5,465.5C 106.502,467.61 110.835,468.943 115.5,469.5C 225.999,470.499 336.665,470.833 447.5,470.5C 339.15,471.172 230.65,471.838 122,472.5C 113.807,471.752 105.974,469.752 98.5,466.5C 97.452,465.452 96.452,464.452 95.5,463.5 Z"/></g>
<g><path style="opacity:0.125" fill="#fbffec" d="M 464.5,471.5 C 465.525,471.897 465.692,472.563 465,473.5C 464.536,472.906 464.369,472.239 464.5,471.5 Z"/></g>
</svg>
