<?xml version="1.0" encoding="UTF-8"?>
<svg xmlns="http://www.w3.org/2000/svg" version="1.1" width="400px" height="400px"
     style="shape-rendering:geometricPrecision; text-rendering:geometricPrecision; image-rendering:optimizeQuality; fill-rule:evenodd; clip-rule:evenodd">
<g><path style="opacity:0.938" fill="#fefffe" d="M 354.5,109.5 C 359.913,109.229 365.246,109.729 370.5,111C 372.317,112.8 373.484,114.966 374,117.5C 374.667,136.167 374.667,154.833 374,173.5C 373.837,175.676 373.004,177.509 371.5,179C 364.167,182.333 356.833,182.333 349.5,179C 348.107,177.829 347.273,176.329 347,174.5C 346.333,155.167 346.333,135.833 347,116.5C 348.211,112.666 350.711,110.333 354.5,109.5 Z"/></g>
<g><path style="opacity:0.956" fill="#fefffe" d="M 204.5,118.5 C 208.192,117.971 211.358,118.971 214,121.5C 219.601,136.805 225.101,152.138 230.5,167.5C 235.626,153.622 240.46,139.622 245,125.5C 251.701,117.939 258.701,117.605 266,124.5C 271.194,139.081 276.194,153.748 281,168.5C 286.721,153.339 292.054,138.006 297,122.5C 301.97,117.717 307.47,117.217 313.5,121C 317.031,122.529 319.031,125.196 319.5,129C 310.733,155.969 301.566,182.802 292,209.5C 285,217.5 278,217.5 271,209.5C 265.803,194.908 260.803,180.241 256,165.5C 250.867,180.565 245.534,195.565 240,210.5C 232.991,217.333 226.325,217 220,209.5C 211,183.833 202,158.167 193,132.5C 192.245,129.697 192.578,127.03 194,124.5C 197.101,121.648 200.601,119.648 204.5,118.5 Z"/></g>
<g><path style="opacity:0.955" fill="#fefffe" d="M 24.5,119.5 C 32.9001,117.644 39.7335,119.978 45,126.5C 56.3333,141.833 67.6667,157.167 79,172.5C 79.3333,156.833 79.6667,141.167 80,125.5C 80.625,122.388 82.4583,120.555 85.5,120C 89.1667,119.333 92.8333,119.333 96.5,120C 99.8929,120.394 102.06,122.227 103,125.5C 103.667,153.167 103.667,180.833 103,208.5C 100.988,213.971 96.9879,216.305 91,215.5C 88.0746,215.477 85.2413,214.977 82.5,214C 69.5454,197.257 56.712,180.423 44,163.5C 43.9199,179.212 43.2533,194.878 42,210.5C 39.6613,214.347 36.1613,216.014 31.5,215.5C 27.6034,215.653 24.1034,214.653 21,212.5C 19.3499,183.253 19.0165,153.919 20,124.5C 21.025,122.313 22.525,120.646 24.5,119.5 Z"/></g>
<g><path style="opacity:0.953" fill="#fefffe" d="M 118.5,119.5 C 140.169,119.333 161.836,119.5 183.5,120C 189.707,127.013 190.04,134.346 184.5,142C 168.571,143.454 152.571,143.954 136.5,143.5C 136.5,147.5 136.5,151.5 136.5,155.5C 147.172,155.333 157.839,155.5 168.5,156C 172.889,158.529 174.555,162.363 173.5,167.5C 174.737,173.199 172.737,177.032 167.5,179C 157.172,179.5 146.839,179.666 136.5,179.5C 136.5,183.5 136.5,187.5 136.5,191.5C 151.837,191.333 167.17,191.5 182.5,192C 184.286,192.785 185.786,193.951 187,195.5C 189,200.833 189,206.167 187,211.5C 185.786,213.049 184.286,214.215 182.5,215C 161.833,215.667 141.167,215.667 120.5,215C 117.966,214.484 115.8,213.317 114,211.5C 112.359,183.562 112.025,155.562 113,127.5C 113.625,123.891 115.458,121.224 118.5,119.5 Z"/></g>
<g><path style="opacity:0.949" fill="#fefffe" d="M 352.5,192.5 C 374.495,190.002 380.828,198.836 371.5,219C 365.277,220.581 358.944,220.915 352.5,220C 349.667,219.167 347.833,217.333 347,214.5C 346.333,209.167 346.333,203.833 347,198.5C 348.36,195.977 350.193,193.977 352.5,192.5 Z"/></g>
</svg>
